<svg width="400" height="405" viewBox="0 0 400 405" fill="none" xmlns="http://www.w3.org/2000/svg">
<rect y="-0.00012207" width="400" height="400" rx="7" fill="#DD5D18"/>
<rect x="18" y="17.9999" width="364" height="364" rx="7" fill="#333333"/>
<path d="M163 344.156C163 347.437 161.406 349.125 158.219 349.125L39.1562 349.125C35.9687 349.125 34.375 347.437 34.375 344.156L34.375 333.75C34.375 330.469 35.9687 328.781 39.1562 328.781L158.219 328.781C161.406 328.781 163 330.469 163 333.75L163 344.156ZM97.9375 227.156L98.0312 227.156C99.4375 219.469 102.906 213.375 108.437 208.875C113.969 204.375 120.906 202.125 129.25 202.125C139.375 202.125 147.531 205.219 153.719 211.5C159.906 217.781 163 226.125 163 236.531L163 289.969C163 293.25 161.406 294.937 158.219 294.937L39.1562 294.937C35.9687 294.937 34.375 293.25 34.375 289.969L34.375 240.375C34.375 229.969 37.375 221.625 43.4687 215.344C49.5625 209.062 57.5312 205.969 67.375 205.969C75.0625 205.969 81.5312 207.844 86.7812 211.687C92.0312 215.531 95.3125 220.687 96.5312 227.156L97.9375 227.156ZM52.2812 245.531L52.4687 274.594L89.7812 274.594L89.7812 245.531C89.7812 239.625 88.0937 234.937 84.7187 231.469C81.3437 228 76.8437 226.219 71.2187 226.219C65.5937 226.219 61 228 57.5312 231.469C54.0625 234.937 52.2812 239.625 52.2812 245.531ZM145.469 241.687L145.375 241.687C145.375 235.781 143.594 231.094 140.031 227.625C136.469 224.156 131.687 222.375 125.781 222.375C119.781 222.375 115 224.156 111.437 227.625C107.875 231.094 106.094 235.781 106.094 241.687L106.094 274.594L145.469 274.594L145.469 241.687ZM34.375 127.406L34.2812 127.594C34.2812 114.656 38.2187 104.25 46.1875 96.4687C54.1562 88.6875 64.75 84.75 77.9687 84.75C91.1875 84.75 101.687 88.5937 109.562 96.375C117.437 104.156 121.375 114.469 121.375 127.406L121.375 157.031L158.219 157.031C161.406 157.031 163 158.719 163 162L163 172.406C163 175.687 161.406 177.375 158.219 177.375L39.1562 177.375C35.9687 177.375 34.375 175.687 34.375 172.406L34.375 127.406ZM102.625 129.187L102.812 129.187C102.812 121.781 100.562 115.875 96.0625 111.562C91.5625 107.25 85.5625 105.094 77.9687 105.094C70.375 105.094 64.375 107.25 59.875 111.562C55.375 115.875 53.125 121.781 53.125 129.187L53.125 157.219L102.625 157.219L102.625 129.187Z" fill="white"/>
<path d="M255.75 404.688H255C228.562 404.688 207 398.312 190.312 385.562C173.625 372.812 165.188 356.5 165.188 336.438V332.688C165.188 329.875 166.125 327.438 168 325.562C169.875 323.688 172.312 322.75 175.5 322.75H205.125C210.562 322.75 213.938 325.375 215.438 330.812C218.25 351.625 231.938 361.938 256.5 361.938C270.188 361.938 281.062 358 289.125 350.125C297.188 342.25 301.312 331.562 301.312 318.062C301.312 304.562 297.375 293.688 289.5 285.625C281.625 277.562 271.125 273.438 258 273.438C241.875 273.438 230.062 278.312 222.75 288.062C221.25 289.562 219.375 290.312 216.938 290.312H180.75C173.062 290.312 169.875 286.75 171.188 279.625L188.438 152.5C189.188 146.125 192.75 142.938 199.312 142.938H321.75C328.688 142.938 332.062 146.312 332.062 153.25V175.188C332.062 182.125 328.688 185.5 321.75 185.5H231.188L222 248.5H224.625C234.375 238.188 249.75 233.125 270.75 233.125C294.938 233.125 314.438 240.812 329.25 256C344.062 271.188 351.562 291.438 351.562 316.562C351.562 343.375 342.938 364.75 325.5 380.688C308.062 396.625 284.812 404.688 255.75 404.688Z" fill="#DD5D18"/>
</svg>
